<svg height="512pt" viewBox="0 0 512 512" width="512pt" xmlns="http://www.w3.org/2000/svg"><path d="m294.878906 497h-257.378906c-12.40625 0-22.5-10.09375-22.5-22.5v-437c0-12.40625 10.09375-22.5 22.5-22.5h77.019531c4.144531 0 7.5-3.359375 7.5-7.5s-3.355469-7.5-7.5-7.5h-77.019531c-20.679688 0-37.5 16.820312-37.5 37.5v437c0 20.679688 16.820312 37.5 37.5 37.5h257.378906c4.140625 0 7.5-3.359375 7.5-7.5s-3.359375-7.5-7.5-7.5zm0 0"/><path d="m124.023438 179.5c-9.652344 0-17.5 7.851562-17.5 17.5v208.230469c0 9.648437 7.847656 17.5 17.5 17.5h42c9.648437 0 17.5-7.851563 17.5-17.5v-208.230469c0-9.648438-7.851563-17.5-17.5-17.5zm44.5 17.5v208.230469c0 1.378906-1.125 2.5-2.5 2.5h-42c-1.378907 0-2.5-1.121094-2.5-2.5v-208.230469c0-1.378906 1.121093-2.5 2.5-2.5h42c1.378906 0 2.5 1.121094 2.5 2.5zm0 0"/><path d="m328.476562 269.003906v136.226563c0 9.648437 7.851563 17.5 17.5 17.5h42c9.652344 0 17.5-7.851563 17.5-17.5v-169.109375c0-31.222656-25.398437-56.621094-56.621093-56.621094-14.078125 0-27.628907 5.140625-38.160157 14.480469l-15.472656 13.71875v-10.703125c0-9.648438-7.851562-17.5-17.5-17.5h-42c-9.648437 0-17.5 7.851562-17.5 17.5v120.773437c0 4.140625 3.355469 7.5 7.5 7.5 4.140625 0 7.5-3.359375 7.5-7.5v-120.769531c0-1.378906 1.121094-2.5 2.5-2.5h42c1.378906 0 2.5 1.121094 2.5 2.5v14.558594c0 5.292968 2.996094 9.929687 7.824219 12.097656 4.824219 2.171875 10.28125 1.339844 14.242187-2.171875l18.355469-16.277344c7.785157-6.90625 17.804688-10.707031 28.210938-10.707031 22.949219 0 41.621093 18.671875 41.621093 41.625v169.105469c0 1.378906-1.121093 2.5-2.5 2.5h-42c-1.375 0-2.5-1.121094-2.5-2.5v-136.226563c0-12.488281-7.042968-23.492187-18.382812-28.722656-11.335938-5.230469-24.28125-3.441406-33.777344 4.664062-7.050781 6.019532-11.09375 14.789063-11.09375 24.058594v136.226563c0 1.378906-1.121094 2.5-2.5 2.5h-42c-1.378906 0-2.5-1.121094-2.5-2.5v-52.9375c0-4.140625-3.359375-7.5-7.5-7.5-4.144531 0-7.5 3.359375-7.5 7.5v52.9375c0 9.648437 7.851563 17.5 17.5 17.5h42c9.648438 0 17.5-7.851563 17.5-17.5v-136.226563c0-4.875 2.125-9.484375 5.832032-12.648437 5.066406-4.328125 11.707031-5.246094 17.757812-2.453125 6.050781 2.789062 9.664062 8.4375 9.664062 15.101562zm0 0"/><path d="m145.023438 89.269531c-20.953126 0-38 17.046875-38 38s17.046874 38 38 38c20.953124 0 38-17.046875 38-38s-17.046876-38-38-38zm0 61c-12.683594 0-23-10.320312-23-23 0-12.683593 10.316406-23 23-23 12.679687 0 23 10.316407 23 23 0 12.679688-10.320313 23-23 23zm0 0"/><path d="m474.5 0h-323.308594c-4.144531 0-7.5 3.359375-7.5 7.5s3.355469 7.5 7.5 7.5h323.308594c12.40625 0 22.5 10.09375 22.5 22.5v437c0 12.40625-10.09375 22.5-22.5 22.5h-145.097656c-4.140625 0-7.5 3.359375-7.5 7.5s3.359375 7.5 7.5 7.5h145.097656c20.679688 0 37.5-16.820312 37.5-37.5v-437c0-20.679688-16.820312-37.5-37.5-37.5zm0 0"/></svg>